<svg width="22" height="16" viewBox="0 0 22 16" fill="none" xmlns="http://www.w3.org/2000/svg">
<path opacity="0.24" fill-rule="evenodd" clip-rule="evenodd" d="M12.9034 0.5233C12.1075 0.810958 11.7676 0.88899 10.9998 0.88899C10.232 0.88899 9.89216 0.810958 9.09627 0.5233L9.03409 0.500814C8.02943 0.137542 7.43229 0 6.44525 0C4.05055 0 1.85231 2.2826 0.942996 5.06478C0.245262 7.1996 0.0589768 8.56701 0 11.5385C0.0582506 14.4925 1.34092 15.9856 3.66063 16C5.11467 15.9917 6.11219 15.363 7.03418 14.2208C7.17642 14.0446 7.56758 13.5231 7.60944 13.4673L7.61308 13.4625C8.56208 12.235 9.54325 11.5652 11.0027 11.5556C12.4564 11.5652 13.4376 12.235 14.3866 13.4625L14.3902 13.4673C14.4321 13.5231 14.8232 14.0446 14.9655 14.2208C15.8875 15.363 16.885 15.9917 18.3278 16C20.6587 15.9856 21.9414 14.4925 21.9997 11.5727C21.9407 8.56701 21.7544 7.1996 21.0567 5.06478C20.1474 2.2826 17.9491 0 15.5544 0C14.5674 0 13.9702 0.137542 12.9656 0.500814L12.9034 0.5233ZM8.45599 2.18912C9.44191 2.54546 10.0813 2.66675 10.9998 2.66675C11.9183 2.66675 12.5578 2.54546 13.5437 2.18912L13.6061 2.16655C14.4239 1.87087 14.828 1.77777 15.5544 1.77777C16.9794 1.77777 18.6139 3.47491 19.309 5.60188C19.9466 7.55253 20.1108 8.75828 20.1667 11.5727C20.1263 13.5618 19.5656 14.2145 18.3273 14.2222C17.5536 14.2177 17.0194 13.8811 16.4091 13.125C16.3079 12.9995 16.0218 12.6195 15.9042 12.4633L15.9037 12.4627L15.9037 12.4626L15.8535 12.396C14.5953 10.7687 13.164 9.79183 10.9941 9.77781C8.83564 9.79184 7.40437 10.7687 6.14622 12.396L6.09601 12.4626C5.9788 12.6183 5.69199 12.9994 5.59055 13.125C4.98025 13.8811 4.4461 14.2177 3.66112 14.2222C2.43408 14.2145 1.87338 13.5618 1.83301 11.5384C1.88887 8.75828 2.05313 7.55253 2.69067 5.60188C3.38584 3.47491 5.02026 1.77777 6.44527 1.77777C7.17166 1.77777 7.57583 1.87087 8.39357 2.16655L8.45599 2.18912ZM15.5832 5.77778C15.0769 5.77778 14.6665 5.37981 14.6665 4.88889C14.6665 4.39797 15.0769 4 15.5832 4C16.0894 4 16.4998 4.39797 16.4998 4.88889C16.4998 5.37981 16.0894 5.77778 15.5832 5.77778ZM14.6665 8.44443C14.6665 8.93535 15.0769 9.33332 15.5832 9.33332C16.0894 9.33332 16.4998 8.93535 16.4998 8.44443C16.4998 7.95351 16.0894 7.55554 15.5832 7.55554C15.0769 7.55554 14.6665 7.95351 14.6665 8.44443ZM17.4164 7.55555C16.9102 7.55555 16.4998 7.15758 16.4998 6.66666C16.4998 6.17574 16.9102 5.77777 17.4164 5.77777C17.9227 5.77777 18.3331 6.17574 18.3331 6.66666C18.3331 7.15758 17.9227 7.55555 17.4164 7.55555ZM12.8333 6.66666C12.8333 7.15758 13.2437 7.55555 13.7499 7.55555C14.2562 7.55555 14.6666 7.15758 14.6666 6.66666C14.6666 6.17574 14.2562 5.77777 13.7499 5.77777C13.2437 5.77777 12.8333 6.17574 12.8333 6.66666ZM6.4165 9.33333C4.89772 9.33333 3.6665 8.13943 3.6665 6.66667C3.6665 5.19391 4.89772 4 6.4165 4C7.93529 4 9.1665 5.19391 9.1665 6.66667C9.1665 8.13943 7.93529 9.33333 6.4165 9.33333ZM7.33309 6.66666C7.33309 7.15758 6.92268 7.55555 6.41642 7.55555C5.91016 7.55555 5.49976 7.15758 5.49976 6.66666C5.49976 6.17574 5.91016 5.77777 6.41642 5.77777C6.92268 5.77777 7.33309 6.17574 7.33309 6.66666Z" fill="black"/>
</svg>
