<svg width="20" height="19" viewBox="0 0 20 19" fill="none" xmlns="http://www.w3.org/2000/svg">
<g opacity="0.24">
<path fill-rule="evenodd" clip-rule="evenodd" d="M1.55192 10.5921C1.19689 10.9455 0.621289 10.9455 0.266267 10.5921C-0.0887555 10.2388 -0.0887555 9.66595 0.266267 9.31262L9.35718 0.264999C9.7122 -0.0883329 10.2878 -0.0883329 10.6428 0.264999L19.7337 9.31262C20.0888 9.66595 20.0888 10.2388 19.7337 10.5921C19.3787 10.9455 18.8031 10.9455 18.4481 10.5921L18.1818 10.3274V17.1945C18.1818 18.1933 17.3689 19 16.3628 19H3.63716C2.63348 19 1.81818 18.1934 1.81818 17.1945V10.3274L1.55192 10.5921ZM3.63709 17.1905L6.36357 17.191V11.7597C6.36357 11.2612 6.77017 10.8571 7.26996 10.8571H12.7299C13.2305 10.8571 13.6363 11.261 13.6363 11.7597V17.1929L16.3636 17.1945V8.51945L9.99993 2.19167L3.63625 8.51949C3.63607 10.2308 3.63709 17.1905 3.63709 17.1905ZM11.8182 12.6653V17.1923L8.18188 17.1914V12.6667L11.8182 12.6653Z" fill="black"/>
</g>
</svg>
