<svg width="18" height="17" viewBox="0 0 18 17" fill="none" xmlns="http://www.w3.org/2000/svg">
<path opacity="0.24" fill-rule="evenodd" clip-rule="evenodd" d="M12.6 0C11.217 0 9.95536 0.530866 9 1.40391C8.04464 0.530866 6.78304 0 5.4 0C2.41766 0 0 2.46848 0 5.51351C0 9.95785 4.48072 14.2534 8.62049 16.7595C8.83009 16.8923 9.17315 16.8905 9.38216 16.7577C13.4946 14.2432 18 9.95763 18 5.51351C18 2.46848 15.5823 0 12.6 0ZM9.00514 14.8252C4.55465 11.8546 1.80005 8.38441 1.80005 5.51352C1.80005 3.4835 3.41182 1.83784 5.40005 1.83784C6.29963 1.83784 7.1433 2.1736 7.7996 2.77336L8.66566 3.56479C8.85285 3.73585 9.14976 3.73356 9.33444 3.56479L10.2005 2.77336C10.8568 2.1736 11.7005 1.83784 12.6 1.83784C14.5883 1.83784 16.2 3.4835 16.2 5.51352C16.2 8.45824 13.4557 11.8546 9.00514 14.8252Z" fill="black"/>
</svg>
