<svg width="18" height="20" viewBox="0 0 18 20" fill="none" xmlns="http://www.w3.org/2000/svg">
<path opacity="0.24" fill-rule="evenodd" clip-rule="evenodd" d="M14.85 17.2729C16.5897 17.2729 18 15.8484 18 14.0911V0.92929C18.0016 0.854306 17.9939 0.777902 17.9762 0.701509C17.8626 0.212723 17.3782 -0.0904878 16.8943 0.0242693L5.22802 2.79094C4.82628 2.88621 4.55117 3.23961 4.5 3.63657V13.9428C4.09084 13.7464 3.63312 13.6366 3.15 13.6366C1.4103 13.6366 0 15.0611 0 16.8184C0 18.5757 1.4103 20.0002 3.15 20.0002C4.8897 20.0002 6.3 18.5757 6.3 16.8184V8.0407L16.2 5.6929V11.2155C15.7908 11.0192 15.3331 10.9093 14.85 10.9093C13.1103 10.9093 11.7 12.3338 11.7 14.0911C11.7 15.8484 13.1103 17.2729 14.85 17.2729ZM6.30005 6.17309V4.40434L16.2 2.05655V3.82529L6.30005 6.17309ZM16.2 14.0911C16.2 13.338 15.5956 12.7275 14.85 12.7275C14.1044 12.7275 13.5 13.338 13.5 14.0911C13.5 14.8442 14.1044 15.4548 14.85 15.4548C15.5956 15.4548 16.2 14.8442 16.2 14.0911ZM3.15005 15.4547C3.89563 15.4547 4.50005 16.0653 4.50005 16.8184C4.50005 17.5715 3.89563 18.182 3.15005 18.182C2.40446 18.182 1.80005 17.5715 1.80005 16.8184C1.80005 16.0653 2.40446 15.4547 3.15005 15.4547Z" fill="black"/>
</svg>
